HIERARCHY
ROOT Hips
{
 OFFSET 0.000000 0.000000 0.000000
 CHANNELS 6 Xposition Yposition Zposition Yrotation Xrotation Zrotation
 JOINT Chest
 {
  OFFSET 0.000000 12.953391 -0.028419
  CHANNELS 3 Yrotation Xrotation Zrotation
  JOINT Chest2
  {
   OFFSET 0.000000 10.280254 0.051622
   CHANNELS 3 Yrotation Xrotation Zrotation
   JOINT Chest3
   {
    OFFSET 0.000000 9.287180 0.000000
    CHANNELS 3 Yrotation Xrotation Zrotation
    JOINT Chest4
    {
     OFFSET 0.000000 9.287180 0.000000
     CHANNELS 3 Yrotation Xrotation Zrotation
     JOINT Neck
     {
      OFFSET 0.000000 13.296264 0.000000
      CHANNELS 3 Yrotation Xrotation Zrotation
      JOINT Head
      {
       OFFSET 0.000000 8.959264 0.099003
       CHANNELS 3 Yrotation Xrotation Zrotation
       End Site
       {
        OFFSET 0.000000 17.121337 0.039303
       }
      }
     }
     JOINT RightCollar
     {
      OFFSET -3.193511 7.451388 0.000000
      CHANNELS 3 Yrotation Xrotation Zrotation
      JOINT RightShoulder
      {
       OFFSET -15.792092 0.000000 0.000000
       CHANNELS 3 Yrotation Xrotation Zrotation
       JOINT RightElbow
       {
        OFFSET -31.151839 0.000000 0.000000
        CHANNELS 3 Yrotation Xrotation Zrotation
        JOINT RightWrist
        {
         OFFSET -25.536298 0.000000 0.002321
         CHANNELS 3 Yrotation Xrotation Zrotation
         End Site
         {
          OFFSET -19.133213 0.000000 0.000000
         }
        }
       }
      }
     }
     JOINT LeftCollar
     {
      OFFSET 3.193511 7.451388 0.000000
      CHANNELS 3 Yrotation Xrotation Zrotation
      JOINT LeftShoulder
      {
       OFFSET 15.792092 0.000000 0.000000
       CHANNELS 3 Yrotation Xrotation Zrotation
       JOINT LeftElbow
       {
        OFFSET 31.151839 0.000000 0.000000
        CHANNELS 3 Yrotation Xrotation Zrotation
        JOINT LeftWrist
        {
         OFFSET 25.536298 0.000000 0.002321
         CHANNELS 3 Yrotation Xrotation Zrotation
         End Site
         {
          OFFSET 19.133213 0.000000 0.000000
         }
        }
       }
      }
     }
    }
   }
  }
 }
 JOINT RightHip
 {
  OFFSET -10.745749 0.139252 0.014209
  CHANNELS 3 Yrotation Xrotation Zrotation
  JOINT RightKnee
  {
   OFFSET 0.000000 -43.743899 -0.006071
   CHANNELS 3 Yrotation Xrotation Zrotation
   JOINT RightAnkle
   {
    OFFSET 0.000000 -43.214199 0.089931
    CHANNELS 3 Yrotation Xrotation Zrotation
    JOINT RightToe
    {
     OFFSET 0.000000 -9.699830 19.151588
     CHANNELS 3 Yrotation Xrotation Zrotation
     End Site
     {
      OFFSET 0.000000 -1.292898 4.893873
     }
    }
   }
  }
 }
 JOINT LeftHip
 {
  OFFSET 10.745749 0.139252 0.014209
  CHANNELS 3 Yrotation Xrotation Zrotation
  JOINT LeftKnee
  {
   OFFSET 0.000000 -43.743899 -0.006071
   CHANNELS 3 Yrotation Xrotation Zrotation
   JOINT LeftAnkle
   {
    OFFSET 0.000000 -43.214199 0.089931
    CHANNELS 3 Yrotation Xrotation Zrotation
    JOINT LeftToe
    {
     OFFSET 0.000000 -9.699830 19.151588
     CHANNELS 3 Yrotation Xrotation Zrotation
     End Site
     {
      OFFSET 0.000000 -1.292898 4.893873
     }
    }
   }
  }
 }
}
MOTION
Frames: 12
Frame Time: 0.016667
-184.548763 99.259720 92.825641 73.247753 -15.493776 5.856549 -0.864960 14.368016 3.386237 -0.486929 6.379417 1.519743 -0.486929 6.379417 1.519743 -0.380744 4.783392 1.143729 -10.749581 22.280362 4.972667 -20.718253 6.733033 11.789465 12.484231 7.418549 8.268418 10.642489 -21.292751 65.835908 4.034539 11.501169 -10.255520 8.355304 25.663794 -61.950626 -7.531822 10.656830 -14.556644 -10.203619 -14.817479 -70.021467 -14.227840 13.466778 -0.857780 6.339761 13.237788 7.996523 -7.285169 14.102422 -1.435948 -1.857934 5.315356 -0.478244 -10.627760 -5.486773 -2.560884 0.000000 0.000000 0.000000 27.812916 5.403123 7.674690 1.406068 12.208198 -0.842475 0.477750 -0.700236 -4.044827 0.000000 -0.000000 0.000000
-184.562551 99.262658 92.690345 73.262738 -15.301638 5.853237 -0.779148 14.306013 3.397631 -0.449013 6.352465 1.522087 -0.449008 6.352471 1.522086 -0.352288 4.763279 1.145076 -10.760047 22.251757 4.953024 -20.735825 6.678389 11.761737 12.434968 7.451462 8.373575 10.695195 -21.186466 65.592585 3.986664 11.389184 -10.230715 8.433719 25.616618 -62.023448 -7.543310 10.682002 -14.454757 -10.049049 -14.896338 -70.178631 -14.485050 13.440713 -0.757045 6.386188 13.220661 7.966279 -7.433589 13.960299 -1.565549 -2.062728 5.174010 -0.523193 -10.269633 -5.334630 -2.513916 0.000000 0.000000 0.000000 27.400189 5.107539 7.498990 1.832670 12.494013 -0.820092 0.503158 -1.073708 -4.409540 0.000000 0.000000 0.000000
-184.576340 99.265596 92.555050 73.277698 -15.109498 5.849980 -0.693407 14.243993 3.408643 -0.411113 6.325502 1.524290 -0.411109 6.325505 1.524289 -0.323852 4.743144 1.146323 -10.770580 22.223203 4.933309 -20.753508 6.623825 11.733920 12.385947 7.484211 8.478890 10.746693 -21.079682 65.349789 3.938734 11.277382 -10.205331 8.511989 25.569261 -62.096380 -7.554599 10.706946 -14.352762 -9.894247 -14.974363 -70.336398 -14.743125 13.414935 -0.657713 6.432909 13.203568 7.936395 -7.581964 13.817889 -1.694274 -2.267644 5.032800 -0.567073 -9.911240 -5.183183 -2.466283 0.000000 -0.000000 -0.000000 26.988612 4.810075 7.326726 2.259919 12.779418 -0.796155 0.530018 -1.446847 -4.774688 0.000000 0.000000 0.000000
-184.590846 99.274423 92.398553 73.308631 -14.927383 5.855474 -0.614412 14.194471 3.415180 -0.376132 6.304056 1.524748 -0.376132 6.304056 1.524748 -0.297600 4.727142 1.146299 -10.772939 22.189269 4.918448 -20.758396 6.558906 11.713699 12.341748 7.511527 8.579472 10.822888 -20.975972 65.077609 3.904347 11.123931 -10.179758 8.583723 25.531520 -62.120416 -7.564536 10.727553 -14.255560 -9.734131 -15.071371 -70.494967 -14.992685 13.314416 -0.560560 6.489206 13.194416 7.915295 -7.702396 13.656776 -1.823269 -2.439277 4.917561 -0.600609 -9.627635 -5.033364 -2.436806 0.000000 0.000000 0.000000 26.729727 4.512210 7.178825 2.642809 13.098877 -0.741164 0.466398 -1.815568 -5.116556 0.000000 0.000000 0.000000
-184.609199 99.293673 92.210334 73.349246 -14.754407 5.882353 -0.539450 14.166354 3.414726 -0.342864 6.292108 1.522255 -0.342866 6.292110 1.522256 -0.272622 4.718268 1.144086 -10.762579 22.140888 4.909909 -20.743882 6.466467 11.704133 12.304310 7.526154 8.673082 10.949853 -20.871093 64.754550 3.894973 10.886880 -10.154832 8.649316 25.518142 -62.084198 -7.573466 10.738744 -14.165823 -9.547942 -15.207087 -70.666279 -15.237447 13.087848 -0.466834 6.563387 13.202641 7.909285 -7.777689 13.456757 -1.955528 -2.558042 4.842302 -0.622153 -9.447603 -4.880893 -2.440710 0.000000 0.000000 0.000000 26.740140 4.205987 7.057733 2.957487 13.466947 -0.650971 0.208095 -2.175603 -5.480340 0.000000 -0.000000 0.000000
-184.628269 99.318813 92.000915 73.405920 -14.591491 5.918068 -0.471219 14.150820 3.409938 -0.312520 6.285708 1.518056 -0.312521 6.285711 1.518057 -0.249827 4.713546 1.140625 -10.744145 22.087062 4.906049 -20.716804 6.363518 11.701924 12.271732 7.535306 8.761950 11.100744 -20.768224 64.402236 3.898625 10.608061 -10.129551 8.708611 25.514675 -61.999007 -7.580999 10.745609 -14.080903 -9.356224 -15.361607 -70.839258 -15.474142 12.786518 -0.374883 6.647037 13.218844 7.912700 -7.824826 13.238288 -2.088723 -2.643465 4.793004 -0.634415 -9.342426 -4.729509 -2.463205 0.000000 0.000000 0.000000 26.902969 3.901916 6.956159 3.228724 13.868445 -0.526826 -0.141498 -2.530768 -5.819760 0.000000 0.000000 0.000000
-184.639374 99.342126 91.780659 73.513505 -14.451358 5.933763 -0.424466 14.133767 3.404579 -0.291613 6.278470 1.514267 -0.291613 6.278470 1.514267 -0.234104 4.708167 1.137568 -10.723116 22.049444 4.907243 -20.684282 6.290871 11.705385 12.242828 7.555438 8.847914 11.222464 -20.682490 64.055323 3.893763 10.371374 -10.101550 8.754480 25.487368 -61.849655 -7.584895 10.759302 -13.997701 -9.216106 -15.495860 -70.978873 -15.682754 12.489307 -0.280614 6.724390 13.222697 7.915729 -7.867341 13.044090 -2.216326 -2.720857 4.753575 -0.635023 -9.300875 -4.592014 -2.478328 0.000000 0.000000 -0.000000 27.019181 3.629046 6.880533 3.484625 14.293149 -0.347751 -0.363127 -2.889252 -5.975798 -0.000000 0.000000 -0.000000
-184.636724 99.362204 91.551306 73.687157 -14.338671 5.919038 -0.409869 14.107631 3.402309 -0.284914 6.266958 1.512837 -0.284913 6.266954 1.512836 -0.229041 4.699543 1.136424 -10.697802 22.039770 4.911150 -20.641062 6.269287 11.707862 12.221740 7.604697 8.930503 11.288101 -20.627661 63.720472 3.881914 10.218218 -10.066152 8.791101 25.424574 -61.625513 -7.583347 10.790586 -13.918328 -9.158894 -15.592521 -71.073943 -15.852620 12.207886 -0.178405 6.789617 13.193590 7.920732 -7.920579 12.888593 -2.341709 -2.790415 4.721542 -0.617115 -9.323616 -4.474093 -2.479013 -0.000000 -0.000000 -0.000000 27.028433 3.401358 6.819792 3.718588 14.737360 -0.084803 -0.375421 -3.275408 -5.849400 0.000000 0.000000 0.000000
-184.626110 99.380456 91.311117 73.911509 -14.248603 5.884531 -0.416707 14.079915 3.399620 -0.287646 6.254594 1.511883 -0.287644 6.254591 1.511882 -0.231047 4.690266 1.135736 -10.669705 22.046246 4.920355 -20.592028 6.277907 11.716351 12.204359 7.664981 9.010251 11.325286 -20.590754 63.390780 3.861798 10.107331 -10.028398 8.814506 25.338737 -61.336818 -7.578185 10.828708 -13.840621 -9.153715 -15.669759 -71.134440 -15.994098 11.930582 -0.073028 6.848500 13.152114 7.924881 -7.969458 12.757716 -2.461969 -2.851968 4.699365 -0.587628 -9.409962 -4.369726 -2.472678 -0.000000 -0.000000 0.000000 26.990481 3.204210 6.785888 3.938528 15.203772 0.232887 -0.258615 -3.667886 -5.544503 0.000000 0.000000 0.000000
-184.616218 99.393390 91.065238 74.175528 -14.179574 5.832987 -0.427629 14.059121 3.389506 -0.292004 6.245286 1.507773 -0.292004 6.245286 1.507773 -0.234250 4.683280 1.132702 -10.649034 22.055214 4.942733 -20.559364 6.295153 11.749815 12.177055 7.698417 9.090451 11.363268 -20.547250 63.080483 3.807845 9.998859 -10.000184 8.805462 25.232712 -60.999340 -7.572671 10.852475 -13.755116 -9.164643 -15.742150 -71.156457 -16.118214 11.701221 0.023957 6.902970 13.139739 7.910131 -7.992103 12.651394 -2.561163 -2.930316 4.678508 -0.564770 -9.546600 -4.274229 -2.455048 0.000000 -0.000000 0.000000 26.886209 3.022376 6.821949 4.193006 15.692720 0.537972 -0.035502 -4.005946 -5.208259 0.000000 0.000000 0.000000
-184.610588 99.399647 90.816522 74.472296 -14.133624 5.764558 -0.436186 14.052623 3.369376 -0.295122 6.242358 1.499164 -0.295125 6.242359 1.499165 -0.236495 4.681081 1.126285 -10.638311 22.062002 4.986147 -20.550293 6.314666 11.823687 12.132071 7.687341 9.173351 11.421769 -20.487171 62.785166 3.717855 9.886744 -9.992944 8.764995 25.092802 -60.572407 -7.568169 10.847707 -13.655466 -9.189272 -15.812298 -71.129531 -16.225176 11.543421 0.101387 6.952018 13.180040 7.858539 -7.977336 12.569633 -2.631693 -3.027986 4.661252 -0.554270 -9.735754 -4.188500 -2.426233 0.000000 0.000000 0.000000 26.678945 2.854439 6.943390 4.519096 16.215266 0.816233 0.325765 -4.272559 -4.895754 -0.000000 0.000000 -0.000000
-184.605679 99.400587 90.562116 74.808801 -14.108355 5.678875 -0.448838 14.053184 3.341918 -0.299870 6.242546 1.487441 -0.299874 6.242547 1.487443 -0.239933 4.681215 1.117552 -10.634918 22.071215 5.042798 -20.557479 6.342859 11.922575 12.076870 7.649557 9.256530 11.481362 -20.420323 62.509262 3.593978 9.777452 -9.994543 8.692779 24.935031 -60.095312 -7.563546 10.828423 -13.548219 -9.230258 -15.877886 -71.064043 -16.314202 11.433428 0.170376 6.996832 13.249375 7.787777 -7.936423 12.512400 -2.681310 -3.142412 4.645460 -0.550442 -9.975201 -4.111209 -2.386304 0.000000 0.000000 0.000000 26.404819 2.701483 7.135423 4.878224 16.761645 1.083020 0.794735 -4.485150 -4.554717 0.000000 0.000000 -0.000000
